<?xml version="1.0" standalone="no"?>
<!DOCTYPE svg PUBLIC "-//W3C//DTD SVG 20010904//EN"
 "http://www.w3.org/TR/2001/REC-SVG-20010904/DTD/svg10.dtd">
<svg version="1.0" xmlns="http://www.w3.org/2000/svg"
 width="300.000000pt" height="300.000000pt" viewBox="0 0 300.000000 300.000000"
 preserveAspectRatio="xMidYMid meet">
<metadata>
Created by potrace 1.11, written by Peter Selinger 2001-2013
</metadata>
<g transform="translate(0.000000,300.000000) scale(0.100000,-0.100000)"
fill="#000000" stroke="none">
<path d="M1300 2986 c-337 -49 -612 -187 -856 -431 -172 -171 -284 -346 -352
-551 -70 -208 -79 -261 -86 -479 -4 -112 6 -251 21 -285 3 -8 7 -31 9 -50 2
-30 58 -221 71 -243 8 -13 33 14 33 35 0 30 31 118 42 118 12 0 39 64 47 110
4 19 11 35 18 35 6 0 40 30 75 68 34 37 70 67 78 67 9 0 35 18 59 39 31 28 42
45 37 57 -5 14 -4 15 9 4 17 -14 40 -1 56 35 6 11 21 38 34 60 18 29 21 42 12
48 -8 5 -7 7 3 5 9 -2 16 1 17 6 1 5 7 12 14 16 7 5 13 16 14 27 1 10 6 26 10
35 4 10 8 29 9 42 0 13 4 22 8 20 4 -3 12 5 19 17 10 19 9 21 -5 16 -9 -4 0
10 19 30 24 25 35 44 31 57 -4 14 -2 16 7 7 18 -18 24 -14 46 33 11 25 34 60
51 79 34 39 38 52 13 43 -17 -6 -17 -5 -1 6 9 7 31 21 50 32 30 17 31 19 13
27 -18 7 -18 8 -2 8 11 1 31 14 46 30 17 18 43 32 67 37 21 4 33 9 26 12 -16
5 32 52 54 52 13 0 18 12 15 33 0 4 4 7 10 7 5 0 8 4 4 9 -6 11 41 -1 73 -18
26 -14 97 -4 113 15 6 8 19 14 28 14 14 -1 13 -3 -3 -15 -18 -14 -18 -15 8
-25 15 -5 29 -10 30 -10 2 0 21 16 42 35 41 38 69 48 38 14 -18 -20 -18 -20
10 -13 22 5 27 4 22 -5 -8 -12 34 -9 88 6 12 3 16 1 12 -6 -4 -6 -19 -11 -34
-11 -23 0 -25 -2 -11 -15 9 -9 37 -16 71 -18 31 -1 54 -4 52 -6 -2 -2 1 -10 6
-17 6 -6 9 -16 8 -21 -4 -12 58 -83 72 -83 6 0 8 -4 5 -10 -3 -5 -1 -10 4 -10
12 0 66 -53 88 -87 9 -13 21 -23 28 -23 8 0 17 -9 20 -20 3 -11 22 -36 41 -56
19 -20 34 -43 34 -50 0 -8 5 -14 10 -14 6 0 10 -6 10 -13 0 -8 9 -22 20 -32
11 -10 20 -25 20 -34 0 -8 19 -35 42 -58 l42 -43 -28 0 c-24 0 -27 -2 -16 -15
7 -8 10 -22 6 -30 -3 -8 12 -50 34 -93 22 -42 40 -87 40 -100 0 -12 7 -34 16
-47 9 -14 17 -47 18 -73 0 -27 6 -55 12 -63 21 -26 28 -42 16 -35 -7 4 -12 1
-12 -8 0 -9 4 -16 9 -16 5 0 7 -27 4 -59 -5 -54 -3 -62 21 -86 14 -14 26 -30
26 -35 0 -6 5 -10 11 -10 6 0 8 -8 4 -19 -8 -25 15 -73 32 -67 7 3 14 -1 14
-9 2 -23 4 -29 17 -52 7 -13 13 -39 14 -58 1 -19 4 -35 7 -35 4 0 13 -21 20
-47 8 -27 18 -54 24 -60 5 -7 6 -24 3 -37 -3 -14 -2 -27 3 -31 14 -8 41 -65
41 -86 0 -10 5 -21 10 -24 6 -3 8 -18 6 -31 -6 -31 2 -54 19 -54 23 0 172 168
239 268 60 91 119 205 159 309 14 36 15 44 2 56 -14 14 -10 57 5 57 5 0 16 8
26 17 16 17 16 18 -7 24 l-24 6 27 13 c31 15 42 53 59 214 28 252 -31 566
-149 803 -141 280 -395 534 -675 675 -103 51 -288 113 -402 133 -125 23 -348
28 -465 11z m-320 -446 c0 -5 -2 -10 -4 -10 -3 0 -8 5 -11 10 -3 6 -1 10 4 10
6 0 11 -4 11 -10z m1000 -170 c0 -5 -5 -10 -11 -10 -5 0 -7 5 -4 10 3 6 8 10
11 10 2 0 4 -4 4 -10z m-1250 -280 c0 -5 -4 -10 -10 -10 -5 0 -10 5 -10 10 0
6 5 10 10 10 6 0 10 -4 10 -10z m-5 -130 c3 -5 1 -10 -4 -10 -6 0 -11 5 -11
10 0 6 2 10 4 10 3 0 8 -4 11 -10z m-435 -110 c0 -5 -5 -10 -11 -10 -5 0 -7 5
-4 10 3 6 8 10 11 10 2 0 4 -4 4 -10z m-175 -100 c3 -5 1 -10 -4 -10 -6 0 -11
5 -11 10 0 6 2 10 4 10 3 0 8 -4 11 -10z m355 -154 c0 -3 -4 -8 -10 -11 -5 -3
-10 -1 -10 4 0 6 5 11 10 11 6 0 10 -2 10 -4z m-440 -16 c0 -5 -4 -10 -10 -10
-5 0 -10 5 -10 10 0 6 5 10 10 10 6 0 10 -4 10 -10z m450 -44 c0 -11 -19 -15
-25 -6 -3 5 1 10 9 10 9 0 16 -2 16 -4z m-115 -16 c3 -5 -1 -10 -9 -10 -9 0
-16 5 -16 10 0 6 4 10 9 10 6 0 13 -4 16 -10z m49 -9 c3 -5 -6 -11 -21 -14
-26 -5 -26 -4 -8 9 22 17 22 17 29 5z m-114 -191 c0 -5 -2 -10 -4 -10 -3 0 -8
5 -11 10 -3 6 -1 10 4 10 6 0 11 -4 11 -10z m2270 -60 c0 -5 -14 -13 -32 -19
-24 -9 -33 -8 -40 1 -5 9 2 15 23 21 19 5 27 12 22 20 -4 7 0 7 10 -2 9 -7 17
-17 17 -21z m-230 -31 c0 -19 -33 -36 -38 -20 -2 6 -8 11 -13 11 -6 0 -7 -6
-3 -12 4 -7 -2 -4 -13 7 -24 24 -14 33 33 32 25 -1 34 -6 34 -18z m502 -11
c-7 -7 -12 -8 -12 -2 0 14 12 26 19 19 2 -3 -1 -11 -7 -17z m-448 -53 c-4 -8
-7 -15 -9 -15 -2 0 -5 7 -9 15 -3 9 0 15 9 15 9 0 12 -6 9 -15z m90 -20 c3 -8
1 -15 -4 -15 -6 0 -10 7 -10 15 0 8 2 15 4 15 2 0 6 -7 10 -15z m406 -9 c0 -9
-30 -14 -35 -6 -4 6 3 10 14 10 12 0 21 -2 21 -4z m-84 -63 c-10 -10 -19 5
-10 18 6 11 8 11 12 0 2 -7 1 -15 -2 -18z"/>
<path d="M1183 2240 c2 -15 -3 -32 -15 -42 -10 -10 -18 -13 -18 -8 0 6 -7 7
-17 1 -10 -5 -34 -16 -53 -25 -19 -9 -27 -14 -17 -12 11 4 17 0 17 -9 0 -8 -9
-15 -20 -15 -11 0 -25 -9 -32 -20 -8 -12 -24 -20 -41 -20 -15 0 -26 -4 -22 -9
3 -5 -4 -13 -16 -16 -12 -4 -18 -12 -15 -21 3 -8 -1 -14 -9 -14 -8 0 -15 -5
-15 -11 0 -7 -22 -33 -48 -58 -26 -25 -51 -54 -55 -63 -3 -10 -13 -18 -21 -18
-9 0 -13 -6 -10 -14 3 -8 -5 -24 -18 -36 -13 -13 -17 -20 -10 -16 14 9 17 -10
2 -19 -6 -4 -7 -11 -4 -17 4 -7 2 -8 -4 -4 -14 8 -113 -188 -117 -231 -3 -37
-15 -64 -25 -58 -14 9 -28 -19 -25 -53 1 -17 0 -30 -3 -27 -7 7 -32 -44 -32
-66 0 -10 -4 -20 -9 -23 -5 -3 -11 -17 -14 -31 -3 -20 -1 -25 10 -20 12 4 14
0 8 -22 -3 -16 -13 -41 -21 -57 -8 -16 -14 -35 -14 -43 0 -7 -6 -13 -12 -13
-9 0 -8 -3 2 -10 15 -10 23 -70 9 -70 -5 0 -6 -6 -3 -14 3 -8 1 -17 -5 -21 -6
-3 -11 -11 -11 -16 0 -6 4 -7 10 -4 6 3 10 1 10 -6 0 -9 3 -9 14 0 11 9 15 8
20 -5 9 -23 7 -56 -2 -50 -5 3 -9 -1 -9 -9 0 -8 5 -11 10 -8 7 4 8 -1 3 -13
-25 -61 -37 -119 -27 -122 6 -2 11 -8 11 -13 0 -4 -6 -6 -14 -3 -23 9 -27 -11
-6 -29 26 -22 34 -7 26 48 -7 43 8 73 20 41 3 -9 10 -13 15 -10 5 3 9 1 9 -5
0 -5 -5 -13 -10 -16 -6 -4 -10 -12 -9 -18 3 -14 -22 -69 -34 -78 -9 -7 2 -41
12 -35 3 2 4 -18 2 -45 -3 -43 -5 -48 -15 -33 -11 15 -12 13 -8 -15 2 -17 8
-34 13 -37 5 -3 9 -13 8 -22 0 -14 -2 -13 -9 3 -8 19 -9 19 -9 -2 -1 -12 4
-25 9 -28 6 -4 8 -11 5 -16 -4 -5 -16 -2 -29 6 -12 8 -26 12 -31 8 -4 -5 -2 3
5 16 6 13 8 21 3 18 -11 -6 -48 8 -48 19 0 5 -5 16 -10 24 -21 32 -33 84 -28
119 4 34 4 35 -11 17 -9 -11 -16 -15 -16 -9 0 6 -9 9 -20 6 -11 -3 -21 0 -21
6 -3 26 -4 30 -13 38 -5 5 -6 3 -2 -4 10 -18 -9 -16 -24 2 -7 8 -16 12 -21 9
-11 -6 32 -63 43 -57 4 2 22 -6 40 -18 28 -18 29 -20 8 -14 -61 16 -75 15 -38
-3 21 -10 41 -22 45 -27 9 -8 -31 -2 -60 10 -28 12 19 -54 110 -153 l75 -83
20 20 c10 12 34 28 53 36 19 7 35 18 35 24 0 5 9 13 21 16 11 4 19 14 17 22
-2 9 12 32 29 51 18 20 40 56 50 81 9 25 30 66 47 91 17 25 30 48 28 52 -1 5
3 7 10 5 7 -1 17 8 23 21 5 12 14 22 20 22 5 0 39 23 74 50 36 28 69 50 74 50
6 0 30 16 53 36 24 19 44 33 44 30 0 -11 59 52 118 126 65 80 203 212 293 279
102 77 239 141 239 112 0 -5 -35 -35 -77 -65 -102 -73 -273 -241 -369 -363
-21 -27 -48 -59 -59 -70 -26 -26 -75 -92 -75 -101 0 -3 6 -1 14 5 11 9 16 9
22 0 5 -8 3 -9 -6 -4 -9 5 -11 4 -6 -3 12 -20 25 -14 61 25 l34 38 -22 12
c-22 13 -22 13 3 8 22 -5 40 8 130 97 176 173 286 258 408 315 50 23 66 36 40
30 -9 -1 -13 13 -12 50 0 32 -3 50 -9 46 -6 -3 -7 -1 -3 5 10 17 26 15 26 -4
0 -8 5 -12 10 -9 6 4 8 11 5 16 -4 5 0 9 7 10 71 3 112 15 103 29 -4 6 -10 8
-15 5 -10 -6 -22 23 -14 36 3 5 1 9 -5 9 -5 0 -12 -6 -14 -12 -4 -9 -6 -10 -6
-1 -1 6 7 20 17 29 16 17 16 18 -1 11 -25 -10 -101 65 -92 92 5 16 -29 61 -41
54 -13 -9 -24 0 -24 18 0 13 4 18 13 13 9 -5 9 -4 1 5 -10 11 -47 21 -79 22
-45 1 -75 -6 -75 -18 0 -7 -9 -13 -20 -13 -12 0 -25 -10 -32 -25 -6 -13 -15
-22 -20 -19 -5 3 -8 2 -7 -3 4 -16 -13 -43 -24 -36 -6 4 -8 -2 -4 -16 4 -17 0
-24 -19 -32 -32 -12 -37 -11 -29 1 3 6 -1 10 -9 10 -19 0 -20 9 -6 46 9 23 9
25 -4 15 -11 -10 -17 -8 -28 7 -17 24 -109 24 -153 0 -16 -9 -52 -28 -80 -42
-27 -14 -60 -34 -73 -45 -21 -19 -92 -149 -92 -171 0 -5 -4 -10 -9 -10 -4 0
-19 -24 -32 -54 -13 -30 -27 -52 -33 -49 -5 3 -6 1 -3 -5 9 -13 -2 -44 -13
-37 -11 7 -21 -21 -14 -39 3 -7 -2 -16 -11 -20 -9 -3 -22 -20 -30 -38 -14 -32
-14 -32 -12 -5 1 15 5 27 9 27 4 0 8 12 8 26 0 14 -4 23 -10 19 -5 -3 -10 -2
-10 4 0 5 7 14 16 19 11 6 15 17 11 31 -3 11 -2 19 3 16 10 -6 35 24 26 32 -4
4 -11 1 -16 -7 -7 -11 -10 -12 -10 -2 0 8 -5 10 -12 6 -7 -5 -3 5 10 20 12 16
22 35 22 43 0 7 9 31 20 53 22 43 25 54 11 45 -5 -3 -12 -1 -15 3 -3 5 6 14
19 20 15 7 23 17 19 26 -3 9 4 21 19 31 23 14 33 32 42 75 2 8 9 16 15 18 5 2
8 7 5 12 -3 4 2 13 10 20 22 19 18 32 -6 20 -11 -7 -23 -9 -27 -6 -3 4 8 12
26 18 17 7 33 21 36 33 4 15 19 25 56 34 48 12 60 31 19 31 -10 0 -19 5 -19
10 0 6 7 10 16 10 8 0 12 5 8 11 -4 7 5 10 27 8 60 -4 91 0 83 12 -3 6 -18 8
-33 5 -14 -3 -20 -3 -13 0 6 3 10 9 8 13 -3 4 3 7 12 7 62 0 74 4 63 18 -10
12 -8 13 10 9 15 -4 20 -3 15 5 -4 8 0 12 11 12 17 1 17 2 -1 15 -27 20 -17
19 30 -4 39 -19 39 -19 47 1 7 20 8 20 27 3 20 -18 20 -18 14 13 -6 28 -4 32
15 32 11 0 21 -5 21 -11 0 -7 10 -5 25 5 24 16 25 16 26 -6 1 -16 3 -18 6 -6
2 9 13 20 24 23 24 8 25 29 1 23 -10 -3 -24 2 -32 10 -13 14 -12 15 3 9 12 -4
17 -1 17 11 0 22 -14 44 -26 41 -21 -4 -35 2 -29 11 10 17 -27 11 -47 -7 -15
-14 -19 -14 -16 -3 3 15 -2 15 -65 11 -12 -1 -16 -6 -11 -13 4 -7 -1 -6 -12 3
-13 11 -25 14 -39 9 -28 -12 -37 -12 -30 0 9 15 -1 12 -18 -5 -13 -12 -18 -12
-37 5 -13 11 -27 17 -32 14 -6 -4 -14 0 -19 7 -7 10 -8 7 -6 -11z m-53 -310
c0 -5 -5 -10 -11 -10 -5 0 -7 5 -4 10 3 6 8 10 11 10 2 0 4 -4 4 -10z m473
-186 c9 -10 -22 -64 -36 -64 -7 0 -12 11 -11 28 1 20 6 26 19 24 10 -2 14 1
10 7 -7 12 7 15 18 5z m-346 -116 c-3 -8 -6 -5 -6 6 -1 11 2 17 5 13 3 -3 4
-12 1 -19z m-517 -172 c0 -2 -8 -10 -17 -17 -16 -13 -17 -12 -4 4 13 16 21 21
21 13z m98 -86 c-22 -30 -35 -41 -22 -17 9 16 36 47 41 47 2 0 -6 -13 -19 -30z
m442 26 c0 -3 -4 -8 -10 -11 -5 -3 -10 -1 -10 4 0 6 5 11 10 11 6 0 10 -2 10
-4z m-40 -34 c0 -4 -10 -13 -22 -21 -23 -14 -23 -14 -4 8 20 22 26 25 26 13z
m-25 -52 c-3 -5 -11 -10 -16 -10 -6 0 -7 5 -4 10 3 6 11 10 16 10 6 0 7 -4 4
-10z m-660 -19 c-8 -14 -25 -14 -25 0 0 5 5 7 10 4 6 -3 10 -1 10 6 0 7 3 10
6 6 3 -3 3 -10 -1 -16z m966 -38 c-9 -15 -10 -14 -7 7 6 35 7 37 12 23 3 -7 1
-20 -5 -30z m-625 7 c0 -12 -4 -16 -9 -11 -5 5 -6 14 -3 20 10 15 12 14 12 -9z
m-20 -71 c-15 -33 -15 -33 -9 -4 4 16 6 35 6 43 0 7 4 9 9 4 6 -6 3 -23 -6
-43z m-61 12 c3 -5 1 -12 -5 -16 -5 -3 -10 1 -10 9 0 18 6 21 15 7z m-248
-289 c-9 -9 -20 -29 -26 -42 -5 -14 -10 -18 -10 -10 -1 20 38 84 46 76 3 -3
-1 -14 -10 -24z m25 -187 c-2 -14 -8 -28 -13 -31 -5 -3 -9 -15 -9 -27 0 -16
-3 -18 -9 -8 -5 8 -3 24 5 40 8 14 14 32 14 39 0 6 4 12 9 12 4 0 6 -11 3 -25z
m-25 -152 c-3 -10 -5 -2 -5 17 0 19 2 27 5 18 2 -10 2 -26 0 -35z"/>
<path d="M1570 2206 c0 -2 6 -9 13 -15 10 -8 14 -7 14 4 0 8 -6 15 -14 15 -7
0 -13 -2 -13 -4z"/>
<path d="M1215 1930 c-3 -6 1 -7 9 -4 18 7 21 14 7 14 -6 0 -13 -4 -16 -10z"/>
<path d="M1916 1828 c19 -63 25 -73 34 -58 6 9 6 16 0 18 -6 2 -10 8 -10 14 0
6 7 8 15 4 18 -6 19 -1 5 25 -6 10 -20 19 -31 19 -17 0 -19 -4 -13 -22z"/>
<path d="M1845 1780 c-7 -30 -1 -50 14 -50 13 0 34 57 26 69 -12 21 -33 11
-40 -19z"/>
<path d="M1970 1721 c0 -6 5 -13 10 -16 6 -3 10 1 10 9 0 9 -4 16 -10 16 -5 0
-10 -4 -10 -9z"/>
<path d="M2010 1710 c0 -5 5 -10 11 -10 5 0 7 5 4 10 -3 6 -8 10 -11 10 -2 0
-4 -4 -4 -10z"/>
<path d="M2080 1712 c0 -12 19 -26 26 -19 2 2 -2 10 -11 17 -9 8 -15 8 -15 2z"/>
<path d="M2012 1681 c-10 -6 -10 -10 2 -20 8 -7 13 -18 10 -26 -3 -7 -1 -16 5
-20 7 -4 11 5 11 22 0 36 -12 54 -28 44z"/>
<path d="M2038 1558 c-7 -19 12 -98 22 -98 5 0 7 -7 4 -15 -4 -8 7 -27 25 -46
17 -17 29 -35 25 -40 -3 -5 -2 -9 3 -8 20 3 34 -2 28 -11 -4 -6 -11 -8 -16 -5
-5 4 -9 1 -9 -4 0 -6 6 -11 14 -11 8 0 18 -4 21 -10 3 -5 0 -7 -7 -5 -20 8
-21 -65 -2 -87 9 -9 11 -18 7 -21 -5 -3 -10 -23 -11 -44 -1 -23 1 -33 6 -25 6
9 12 6 20 -13 6 -14 16 -25 22 -25 7 0 4 7 -5 16 -11 11 -13 23 -8 38 7 19 9
125 2 161 -1 8 -6 15 -11 15 -5 0 -8 6 -7 13 3 28 -2 48 -11 42 -6 -3 -7 1 -4
9 4 9 -1 18 -10 22 -9 3 -13 10 -10 15 3 5 -4 19 -16 31 -11 12 -19 33 -18 47
3 48 -41 96 -54 59z m140 -347 l2 -36 -15 34 c-18 40 -18 38 -2 38 8 0 14 -14
15 -36z"/>
<path d="M1873 1485 c-18 -20 -16 -28 3 -21 14 5 15 4 4 -9 -16 -19 -7 -30 17
-20 10 5 20 8 23 8 3 -1 11 5 18 13 11 12 10 14 -5 14 -14 0 -15 2 -5 9 11 7
10 10 -3 15 -25 9 -39 7 -52 -9z"/>
<path d="M1776 1315 c-9 -14 -23 -24 -31 -23 -20 4 -117 -92 -111 -109 3 -8 1
-11 -4 -8 -5 3 -15 -5 -22 -19 -12 -28 -34 -36 -24 -10 5 14 4 15 -9 4 -9 -7
-13 -20 -10 -27 3 -8 -2 -24 -10 -36 -17 -24 -20 -15 -5 14 6 10 7 19 2 19
-10 0 -61 -54 -135 -142 -46 -55 -47 -58 -30 -77 10 -12 22 -21 28 -21 14 0
111 112 107 125 -2 5 -1 7 3 3 9 -9 47 30 40 42 -7 11 30 32 40 22 3 -4 6 -2
5 3 -5 24 14 56 36 61 13 3 24 10 24 16 0 5 4 7 9 3 6 -3 20 8 32 24 12 16 27
27 34 25 19 -8 100 48 102 71 4 25 -16 56 -24 38 -8 -21 -22 -15 -16 7 7 28
-11 25 -31 -5z m31 -31 c-3 -3 -12 -4 -19 -1 -8 3 -5 6 6 6 11 1 17 -2 13 -5z"/>
<path d="M313 1084 c0 -18 2 -22 8 -13 11 18 11 39 0 39 -5 0 -8 -12 -8 -26z"/>
<path d="M2116 1088 c-3 -13 -1 -27 4 -32 7 -7 10 -4 10 6 0 9 3 23 6 32 3 9
2 16 -4 16 -5 0 -12 -10 -16 -22z"/>
<path d="M474 1081 c4 -5 2 -21 -4 -35 -5 -14 -6 -26 -2 -26 4 0 12 16 18 35
9 29 8 35 -3 35 -8 0 -12 -4 -9 -9z"/>
<path d="M2147 1063 c-4 -3 -7 -16 -6 -27 0 -19 1 -19 10 3 10 24 8 36 -4 24z"/>
<path d="M285 1040 c3 -5 11 -10 16 -10 6 0 7 5 4 10 -3 6 -11 10 -16 10 -6 0
-7 -4 -4 -10z"/>
<path d="M2117 1009 c-7 -28 -6 -31 10 -14 6 6 8 18 3 24 -5 9 -9 5 -13 -10z"/>
<path d="M2165 980 c-3 -5 -2 -17 3 -26 8 -15 10 -15 15 0 4 9 2 16 -4 16 -6
0 -7 5 -4 10 3 6 4 10 1 10 -3 0 -8 -4 -11 -10z"/>
<path d="M310 940 c0 -5 5 -10 11 -10 5 0 7 5 4 10 -3 6 -8 10 -11 10 -2 0 -4
-4 -4 -10z"/>
<path d="M486 923 c-5 -15 -2 -31 8 -45 15 -21 16 -21 15 -3 -1 11 -4 31 -8
45 l-7 25 -8 -22z"/>
<path d="M2081 921 c-7 -11 -8 -21 -4 -21 8 0 13 -23 16 -67 0 -15 7 -16 27
-3 12 8 12 10 -5 10 -18 1 -17 3 8 25 15 14 26 26 23 26 -3 1 -11 2 -18 3 -7
0 -18 12 -24 25 l-12 23 -11 -21z m34 -41 c3 -5 2 -10 -4 -10 -5 0 -13 5 -16
10 -3 6 -2 10 4 10 5 0 13 -4 16 -10z"/>
<path d="M2167 918 c-12 -10 -14 -17 -6 -28 9 -13 10 -13 6 0 -2 8 3 20 12 27
9 7 13 13 10 13 -3 0 -13 -6 -22 -12z"/>
<path d="M1358 858 c-35 -47 -73 -117 -66 -123 8 -8 88 101 88 120 0 9 4 13
10 10 6 -3 7 1 4 9 -8 21 -8 21 -36 -16z"/>
<path d="M1555 880 c-3 -5 -1 -10 4 -10 6 0 11 5 11 10 0 6 -2 10 -4 10 -3 0
-8 -4 -11 -10z"/>
<path d="M260 872 c0 -4 5 -13 12 -20 7 -7 8 -12 3 -12 -5 0 2 -12 16 -27 17
-18 19 -24 7 -20 -19 7 -19 -16 0 -35 9 -9 15 -9 24 0 9 9 7 12 -12 12 -23 0
-23 0 -4 15 16 13 17 16 4 26 -11 8 -12 12 -3 16 9 3 9 11 -3 29 -15 23 -44
33 -44 16z"/>
<path d="M990 849 c0 -5 5 -7 10 -4 6 3 10 8 10 11 0 2 -4 4 -10 4 -5 0 -10
-5 -10 -11z"/>
<path d="M2066 847 c3 -10 9 -15 12 -12 3 3 0 11 -7 18 -10 9 -11 8 -5 -6z"/>
<path d="M2153 853 c-7 -2 -13 -11 -13 -18 0 -19 -49 -55 -66 -48 -7 3 -12 8
-10 12 2 3 -2 12 -10 18 -7 7 -15 9 -18 4 -8 -13 54 -63 70 -57 8 3 13 11 12
18 -2 6 9 18 25 25 15 8 27 22 27 34 0 10 -1 19 -2 18 -2 0 -9 -3 -15 -6z"/>
<path d="M1526 835 c-3 -8 -1 -15 4 -15 6 0 10 7 10 15 0 8 -2 15 -4 15 -2 0
-6 -7 -10 -15z"/>
<path d="M1115 812 c-20 -17 -32 -52 -18 -52 8 0 46 61 41 65 -2 2 -12 -4 -23
-13z"/>
<path d="M240 811 c0 -5 7 -12 16 -15 14 -5 15 -4 4 9 -14 17 -20 19 -20 6z"/>
<path d="M931 798 c-14 -23 -14 -23 8 -4 22 20 25 26 13 26 -4 0 -13 -10 -21
-22z"/>
<path d="M361 794 c0 -11 3 -14 6 -6 3 7 2 16 -1 19 -3 4 -6 -2 -5 -13z"/>
<path d="M1472 783 c-13 -11 -19 -24 -13 -27 5 -3 7 -16 3 -28 -3 -13 -1 -19
5 -15 15 9 0 -56 -19 -86 -8 -12 -15 -38 -16 -57 -1 -24 2 -30 8 -20 6 8 10
24 10 35 0 14 3 16 8 7 5 -7 15 -11 23 -9 8 2 10 2 5 -1 -4 -2 -2 -9 5 -14 10
-7 8 -8 -8 -5 -13 3 -24 -1 -27 -9 -7 -18 14 -30 25 -13 4 7 11 10 14 7 14
-13 -8 -29 -31 -24 -18 5 -22 3 -18 -9 4 -8 1 -15 -6 -15 -6 0 -8 -4 -5 -10
10 -16 35 -12 35 5 0 11 9 15 28 13 38 -3 132 66 132 96 0 6 -7 0 -16 -12 -8
-12 -20 -19 -26 -16 -7 4 -8 2 -4 -4 4 -7 2 -12 -5 -12 -7 0 -22 -8 -33 -17
-20 -18 -20 -18 -2 11 10 16 13 25 7 22 -6 -4 -11 -2 -11 3 0 6 4 11 9 11 8 0
19 29 28 74 3 19 2 19 -20 -2 -13 -12 -27 -22 -33 -22 -5 0 -1 5 9 11 9 5 17
20 17 33 0 16 -6 23 -17 23 -43 0 -46 5 -13 20 19 9 39 15 43 14 5 -1 5 8 2
20 -6 18 -4 21 9 16 10 -4 15 -3 11 2 -3 5 1 11 7 14 7 2 10 8 6 12 -4 4 -14
2 -23 -5 -8 -7 -15 -9 -15 -4 0 5 -11 9 -24 9 -13 0 -22 -3 -20 -7 2 -3 1 -14
-3 -25 -7 -16 -8 -15 -13 7 l-5 25 -23 -22z"/>
<path d="M330 791 c0 -5 5 -13 10 -16 6 -3 10 -2 10 4 0 5 -4 13 -10 16 -5 3
-10 2 -10 -4z"/>
<path d="M1994 773 c-2 -20 0 -22 14 -11 8 7 16 11 18 8 1 -3 5 -3 7 0 3 3 -4
10 -16 15 -19 9 -22 8 -23 -12z"/>
<path d="M1000 780 c-9 -6 -10 -10 -3 -10 6 0 15 5 18 10 8 12 4 12 -15 0z"/>
<path d="M1907 752 c-21 -22 -21 -32 -4 -32 18 0 49 34 40 43 -10 11 -19 8
-36 -11z"/>
<path d="M2146 763 c-8 -8 -13 -9 -41 -12 -8 0 -15 -7 -15 -15 0 -7 -9 -16
-21 -19 -12 -3 -18 -10 -15 -16 4 -5 -2 -15 -13 -20 -27 -15 -30 -14 -24 9 5
17 0 19 -31 18 -20 -1 -32 -4 -26 -8 5 -3 -6 -12 -25 -20 -26 -10 -34 -18 -30
-31 7 -21 -13 -35 -28 -20 -8 8 -7 11 3 11 11 1 10 3 -3 11 -18 11 -52 -5 -43
-20 2 -3 -9 -6 -25 -7 -15 -1 -26 3 -23 7 3 5 -2 9 -12 9 -13 0 -14 -3 -4 -15
10 -12 9 -15 -4 -15 -16 0 -16 -1 -2 -16 23 -23 20 -27 -19 -22 -31 3 -38 0
-58 -29 -22 -34 -61 -45 -70 -20 -3 6 -6 3 -7 -8 0 -11 -7 -28 -14 -37 -16
-22 -48 -24 -40 -3 4 10 0 15 -11 15 -9 0 -13 -5 -10 -10 4 -6 2 -17 -4 -24
-8 -10 -4 -12 22 -9 l32 3 -35 -12 c-28 -11 -36 -11 -38 -1 -2 7 -8 11 -13 8
-5 -3 -6 1 -3 9 3 9 10 16 15 16 5 0 9 5 9 10 0 6 -9 10 -20 10 -11 0 -19 -3
-19 -7 4 -24 -4 -33 -28 -33 l-26 0 23 -25 c12 -13 28 -22 34 -19 6 3 0 -4
-14 -15 -30 -24 -48 -28 -25 -5 15 15 15 18 -5 39 -22 23 -18 35 13 35 11 0
18 3 14 6 -3 4 -17 4 -30 0 -19 -4 -27 -16 -36 -50 -6 -25 -16 -48 -21 -51 -6
-4 -8 -11 -4 -16 4 -6 11 -6 20 2 11 9 14 8 14 -4 0 -8 -7 -20 -15 -27 -17
-14 -21 -55 -5 -45 7 4 9 -2 5 -18 -4 -14 -2 -28 3 -31 6 -3 8 -15 5 -26 -3
-12 0 -20 7 -20 7 0 10 -8 7 -20 -3 -11 -1 -18 4 -14 5 3 9 2 9 -1 0 -12 -40
-84 -50 -90 -15 -9 -12 -25 6 -25 8 0 13 4 10 8 -2 4 5 9 17 9 21 2 21 2 -3
-17 l-24 -18 48 -7 c60 -9 224 1 331 21 116 22 256 65 248 77 -3 6 -1 7 6 3 6
-4 43 7 81 25 63 29 68 33 52 46 -15 13 -15 13 5 3 18 -8 31 -6 63 10 22 11
40 25 40 30 0 5 10 10 23 12 35 5 35 43 0 56 -15 6 -22 11 -15 11 6 1 12 8 12
16 0 8 5 15 10 15 17 0 11 18 -7 23 -15 4 -14 5 3 6 23 1 61 37 51 48 -4 3
-16 -2 -27 -12 -11 -10 -20 -15 -20 -10 0 4 -8 1 -17 -6 -15 -12 -16 -12 -8 1
17 27 14 41 -6 35 -35 -10 -64 -15 -51 -9 6 3 10 9 7 14 -3 4 4 6 14 3 22 -5
44 26 39 55 -2 10 3 16 10 14 8 -1 11 2 7 8 -3 5 -2 10 3 10 5 0 9 7 9 15 0 9
-15 -1 -36 -24 -22 -24 -52 -43 -76 -50 -58 -16 -65 -14 -25 8 19 10 40 16 45
13 6 -3 1 5 -9 17 -15 16 -16 20 -5 16 9 -3 22 1 29 10 7 9 9 15 4 14 -5 -1
-20 0 -34 1 -23 2 -22 3 8 11 17 5 32 14 32 20 0 6 -7 8 -16 5 -12 -5 -14 -1
-8 17 4 12 7 27 7 34 0 6 6 9 12 7 7 -3 18 2 25 11 12 15 10 15 -16 9 -44 -10
-74 -23 -74 -30 0 -3 11 -3 26 0 23 6 24 5 14 -13 -13 -25 -32 -38 -24 -17 5
12 -1 16 -21 16 -15 0 -24 -4 -20 -10 4 -6 -7 -10 -27 -10 -18 0 -40 -5 -48
-10 -11 -7 -5 -10 23 -10 40 0 52 -15 15 -17 -13 -1 -24 -7 -26 -13 -2 -5 -8
-10 -13 -10 -6 0 -7 5 -4 10 3 6 1 10 -4 10 -15 0 -14 -23 2 -39 10 -11 9 -13
-5 -8 -10 4 -18 2 -18 -4 0 -6 -8 -3 -17 7 -23 22 -25 62 -4 60 10 -1 16 7 16
19 1 11 4 26 8 33 8 11 2 16 -16 13 -5 -1 -6 3 -2 9 3 5 15 10 26 10 11 0 17
5 14 10 -6 10 44 35 53 26 3 -3 -3 -8 -12 -12 -9 -3 -13 -10 -10 -15 3 -5 0
-9 -5 -9 -6 0 -11 -5 -11 -12 0 -6 13 1 29 16 27 26 37 19 18 -11 -20 -32 47
3 96 50 24 24 14 36 -11 14 -27 -25 -36 -21 -12 5 21 23 27 44 10 33 -5 -3
-10 -2 -10 4 0 5 5 11 12 13 9 3 9 6 0 12 -7 4 -12 2 -12 -4 0 -6 -4 -9 -9 -6
-5 4 -7 -2 -4 -13 3 -10 -1 -22 -7 -26 -8 -5 -10 -2 -6 11 6 22 -7 48 -18 37z
m4 -19 c0 -14 -15 -34 -26 -34 -13 0 -19 21 -9 32 5 5 35 7 35 2z m10 -48 c0
-3 -4 -8 -10 -11 -5 -3 -10 -1 -10 4 0 6 5 11 10 11 6 0 10 -2 10 -4z m10 -30
c0 -2 -7 -7 -16 -10 -8 -3 -12 -2 -9 4 6 10 25 14 25 6z m-217 -39 c-28 -12
-29 -23 -5 -36 9 -6 12 -11 5 -11 -6 0 -19 -3 -29 -7 -13 -5 -15 -3 -8 8 4 8
7 24 6 35 -3 18 2 21 25 21 27 0 27 0 6 -10z m-153 -27 c0 -5 -4 -10 -10 -10
-5 0 -10 5 -10 10 0 6 5 10 10 10 6 0 10 -4 10 -10z m60 -24 c-19 -7 -39 -10
-45 -7 -11 6 29 19 60 19 11 1 5 -5 -15 -12z m315 -86 c3 -5 1 -10 -4 -10 -6
0 -11 5 -11 10 0 6 2 10 4 10 3 0 8 -4 11 -10z m-318 -22 c-3 -8 -6 -5 -6 6
-1 11 2 17 5 13 3 -3 4 -12 1 -19z m148 -68 c10 -11 16 -20 13 -20 -3 0 -13 9
-23 20 -10 11 -16 20 -13 20 3 0 13 -9 23 -20z m-493 -32 c-7 -7 -12 -8 -12
-2 0 14 12 26 19 19 2 -3 -1 -11 -7 -17z m-4 -19 c11 0 12 -2 4 -6 -6 -2 -10
-8 -8 -12 3 -4 -1 -8 -9 -8 -8 0 -12 4 -9 8 2 4 -4 13 -13 19 -17 11 -17 11 0
6 10 -3 26 -6 35 -7z m97 1 c3 -5 1 -10 -4 -10 -6 0 -11 5 -11 10 0 6 2 10 4
10 3 0 8 -4 11 -10z m457 -65 c7 -14 1 -11 -22 10 -17 17 -36 39 -42 50 -7 14
-1 11 22 -10 17 -16 36 -39 42 -50z m-352 61 c0 -3 -4 -8 -10 -11 -5 -3 -10
-1 -10 4 0 6 5 11 10 11 6 0 10 -2 10 -4z m-60 -35 c0 -5 -7 -12 -16 -15 -14
-5 -15 -4 -4 9 14 17 20 19 20 6z"/>
<path d="M1065 740 c-8 -13 5 -13 25 0 13 8 13 10 -2 10 -9 0 -20 -4 -23 -10z"/>
<path d="M2045 743 c-30 -7 -35 -16 -17 -33 14 -13 15 -12 9 3 -4 11 -3 16 3
12 6 -4 17 1 26 9 16 16 14 17 -21 9z"/>
<path d="M333 726 c0 -7 10 -11 21 -10 12 1 24 3 29 3 20 2 3 16 -21 18 -18 1
-29 -3 -29 -11z"/>
<path d="M1130 707 c-14 -12 -38 -32 -53 -44 -15 -12 -30 -31 -32 -42 -2 -12
-7 -26 -10 -31 -3 -6 -2 -10 4 -10 15 0 44 47 36 60 -3 5 4 15 17 21 13 6 33
24 46 40 28 35 26 36 -8 6z"/>
<path d="M1028 713 c6 -2 18 -2 25 0 6 3 1 5 -13 5 -14 0 -19 -2 -12 -5z"/>
<path d="M973 703 c9 -2 23 -2 30 0 6 3 -1 5 -18 5 -16 0 -22 -2 -12 -5z"/>
<path d="M1910 700 c0 -5 7 -7 15 -4 8 4 15 8 15 10 0 2 -7 4 -15 4 -8 0 -15
-4 -15 -10z"/>
<path d="M818 693 c7 -3 16 -2 19 1 4 3 -2 6 -13 5 -11 0 -14 -3 -6 -6z"/>
<path d="M928 673 c7 -3 16 -2 19 1 4 3 -2 6 -13 5 -11 0 -14 -3 -6 -6z"/>
<path d="M996 671 c-4 -5 3 -7 14 -4 23 6 26 13 6 13 -8 0 -17 -4 -20 -9z"/>
<path d="M1813 655 c0 -18 19 -15 25 3 2 7 -3 12 -10 12 -8 0 -15 -7 -15 -15z"/>
<path d="M884 638 l-19 -21 28 18 c28 18 33 25 19 25 -5 0 -17 -10 -28 -22z"/>
<path d="M955 650 c-3 -6 1 -7 9 -4 18 7 21 14 7 14 -6 0 -13 -4 -16 -10z"/>
<path d="M959 621 c-16 -13 -21 -23 -14 -29 6 -6 18 0 33 19 27 33 16 38 -19
10z"/>
<path d="M836 601 c-16 -18 -15 -19 24 -19 22 0 40 4 40 9 0 6 -10 9 -22 7
-14 -2 -22 2 -20 10 3 17 -2 15 -22 -7z"/>
<path d="M2050 600 c0 -5 7 -10 16 -10 8 0 12 5 9 10 -3 6 -10 10 -16 10 -5 0
-9 -4 -9 -10z"/>
<path d="M963 555 c-27 -32 -17 -31 22 0 18 15 24 25 15 25 -8 0 -25 -12 -37
-25z"/>
<path d="M787 554 c3 -9 9 -11 12 -6 3 5 13 12 21 15 9 3 4 6 -12 6 -21 1 -26
-3 -21 -15z"/>
<path d="M930 560 c0 -5 5 -10 10 -10 6 0 10 5 10 10 0 6 -4 10 -10 10 -5 0
-10 -4 -10 -10z"/>
<path d="M1145 554 c-9 -9 -14 -23 -11 -30 3 -8 0 -14 -7 -14 -12 0 -42 -39
-35 -46 7 -6 63 44 63 58 0 7 10 14 23 16 19 3 20 5 8 18 -18 18 -21 18 -41
-2z"/>
<path d="M1097 530 c-16 -16 -25 -30 -19 -30 9 0 33 25 46 48 11 20 3 14 -27
-18z"/>
<path d="M727 544 c-4 -4 5 -16 19 -26 14 -11 26 -19 28 -17 5 8 -41 49 -47
43z"/>
<path d="M1016 528 c-9 -12 -16 -18 -16 -13 0 6 -5 2 -11 -8 -14 -24 -1 -37
14 -16 7 9 17 14 24 12 6 -2 17 6 24 19 12 23 12 23 -10 4 -22 -20 -30 -9 -9
12 7 7 9 12 6 12 -4 0 -14 -10 -22 -22z"/>
<path d="M905 470 c-10 -11 -14 -20 -8 -20 5 0 18 9 28 20 10 11 14 20 8 20
-5 0 -18 -9 -28 -20z"/>
<path d="M950 479 c0 -5 5 -7 10 -4 6 3 10 8 10 11 0 2 -4 4 -10 4 -5 0 -10
-5 -10 -11z"/>
<path d="M1035 460 c-18 -19 -17 -20 2 -20 12 0 23 8 26 20 3 11 2 20 -2 20
-5 0 -16 -9 -26 -20z"/>
<path d="M2284 448 l-19 -23 23 19 c21 18 27 26 19 26 -2 0 -12 -10 -23 -22z"/>
<path d="M656 447 c3 -10 9 -15 12 -12 3 3 0 11 -7 18 -10 9 -11 8 -5 -6z"/>
<path d="M780 440 c13 -24 26 -26 34 -4 3 8 2 12 -3 9 -5 -3 -12 -1 -16 5 -12
20 -26 10 -15 -10z"/>
<path d="M952 455 c4 -5 2 -15 -4 -24 -10 -13 -10 -14 2 -3 18 15 34 16 24 0
-4 -7 -3 -8 4 -4 17 10 15 14 -10 27 -13 6 -20 8 -16 4z"/>
<path d="M630 440 c0 -5 5 -10 11 -10 5 0 7 5 4 10 -3 6 -8 10 -11 10 -2 0 -4
-4 -4 -10z"/>
<path d="M2296 414 c-5 -14 -4 -15 9 -4 17 14 19 20 6 20 -5 0 -12 -7 -15 -16z"/>
<path d="M995 411 c-11 -5 -24 -6 -30 -3 -5 3 -6 1 -2 -4 5 -5 23 -9 40 -10
18 -1 26 1 19 3 -6 3 -10 9 -6 14 6 10 6 10 -21 0z"/>
<path d="M665 390 c3 -5 10 -10 16 -10 5 0 9 5 9 10 0 6 -7 10 -16 10 -8 0
-12 -4 -9 -10z"/>
<path d="M1050 389 c0 -5 5 -7 10 -4 6 3 10 8 10 11 0 2 -4 4 -10 4 -5 0 -10
-5 -10 -11z"/>
<path d="M607 368 c7 -27 33 -67 33 -51 0 7 -4 15 -10 18 -5 3 -10 17 -10 31
0 13 -4 24 -9 24 -5 0 -7 -10 -4 -22z"/>
<path d="M760 386 c0 -2 12 -12 28 -21 l27 -18 -19 21 c-17 20 -36 29 -36 18z"/>
<path d="M863 383 c-18 -7 -16 -23 3 -23 9 0 12 5 8 12 -5 8 0 9 14 6 12 -4
22 -2 22 3 0 10 -26 11 -47 2z"/>
<path d="M560 370 c0 -5 5 -10 10 -10 6 0 10 5 10 10 0 6 -4 10 -10 10 -5 0
-10 -4 -10 -10z"/>
<path d="M1005 370 c17 -4 22 -8 13 -9 -10 0 -19 0 -21 2 -2 1 -16 -6 -31 -17
-16 -10 -25 -13 -22 -7 7 11 -41 28 -51 17 -4 -3 5 -6 18 -6 19 0 21 -2 9 -10
-21 -13 -12 -17 63 -25 47 -5 67 -4 67 4 0 6 9 11 20 11 11 0 20 5 20 11 0 6
-8 8 -17 5 -15 -5 -14 -3 2 10 19 15 19 15 -7 10 -15 -2 -30 0 -33 5 -4 5 -18
8 -33 8 l-27 -1 30 -8z"/>
<path d="M680 352 c0 -10 7 -19 15 -19 17 0 17 0 9 21 -8 22 -24 20 -24 -2z"/>
<path d="M1105 359 c-4 -6 -4 -13 -1 -16 3 -4 6 -1 6 6 0 7 5 9 12 5 7 -4 8
-3 4 4 -9 15 -13 15 -21 1z"/>
<path d="M2315 326 c-11 -6 -21 -17 -22 -23 -4 -18 20 -6 35 17 7 11 11 20 10
19 -2 -1 -12 -6 -23 -13z"/>
<path d="M1160 315 c-19 -7 -50 -14 -67 -14 -18 -1 -33 -6 -33 -12 0 -7 12 -8
33 -4 25 5 29 4 17 -5 -13 -10 -12 -11 3 -6 10 3 25 6 33 6 8 0 14 7 14 15 0
8 6 15 14 15 8 0 18 5 21 10 7 12 9 12 -35 -5z"/>
<path d="M745 300 c10 -11 20 -20 23 -20 3 0 -3 9 -13 20 -10 11 -20 20 -23
20 -3 0 3 -9 13 -20z"/>
<path d="M675 286 c10 -14 19 -26 22 -26 7 0 -17 39 -28 46 -6 3 -3 -5 6 -20z"/>
<path d="M805 299 c4 -5 16 -14 28 -21 19 -10 20 -9 10 4 -7 8 -11 17 -8 19 2
3 -5 5 -16 6 -11 1 -17 -2 -14 -8z"/>
<path d="M891 306 c2 -2 20 -11 39 -21 l35 -18 -19 22 c-11 11 -28 21 -39 21
-11 0 -18 -2 -16 -4z"/>
<path d="M711 271 c7 -10 21 -24 33 -31 15 -9 12 -3 -8 19 -34 35 -41 39 -25
12z"/>
<path d="M890 280 c20 -13 33 -13 25 0 -3 6 -14 10 -23 10 -15 0 -15 -2 -2
-10z"/>
<path d="M1018 283 c6 -2 18 -2 25 0 6 3 1 5 -13 5 -14 0 -19 -2 -12 -5z"/>
<path d="M1156 265 c-11 -8 -15 -15 -10 -15 6 0 19 7 30 15 10 8 15 14 9 14
-5 0 -19 -6 -29 -14z"/>
<path d="M887 239 c7 -7 15 -10 18 -7 3 3 -2 9 -12 12 -14 6 -15 5 -6 -5z"/>
<path d="M740 215 c0 -2 9 -9 19 -15 14 -7 22 -7 27 2 4 7 3 8 -4 4 -7 -4 -12
-2 -12 3 0 6 -7 11 -15 11 -8 0 -15 -2 -15 -5z"/>
<path d="M907 202 c-9 -2 -15 -7 -12 -12 3 -5 13 -6 22 -3 9 4 14 2 11 -3 -11
-16 16 -40 52 -47 l35 -6 -42 22 c-23 12 -42 25 -42 30 1 16 -7 23 -24 19z"/>
<path d="M1068 203 c7 -3 16 -2 19 1 4 3 -2 6 -13 5 -11 0 -14 -3 -6 -6z"/>
<path d="M865 151 c16 -11 31 -18 34 -15 7 7 -12 21 -39 29 -23 6 -23 5 5 -14z"/>
</g>
</svg>
